<svg width="2732" height="1149" viewBox="0 0 2732 1149" fill="none" xmlns="http://www.w3.org/2000/svg">
<rect width="2732" height="1149" rx="51" fill="#150E2A"/>
<path opacity="0.5" d="M527.589 1026H520.908L557.896 956.182H564.714L578.521 1026H571.839L560.214 964.466H559.771L527.589 1026ZM536.862 999.239H571.499L570.544 1004.97H535.908L536.862 999.239ZM625.021 961.909L625.976 956.182H676.601L675.646 961.909H653.521L642.885 1026H636.51L647.146 961.909H625.021ZM673.686 1045.64C672.482 1045.64 671.368 1045.52 670.345 1045.3C669.345 1045.07 668.561 1044.82 667.993 1044.55L670.55 1039.19C672.459 1039.85 674.209 1040.06 675.8 1039.81C677.413 1039.58 678.947 1038.81 680.402 1037.49C681.857 1036.17 683.288 1034.2 684.697 1031.59L687.561 1026.27L677.197 973.636H683.504L691.686 1018.09H692.129L715.072 973.636H721.925L689.709 1034.22C688.322 1036.83 686.788 1038.98 685.107 1040.66C683.447 1042.34 681.652 1043.59 679.72 1044.41C677.811 1045.23 675.8 1045.64 673.686 1045.64ZM721.797 1045.64L733.865 973.636H739.763L738.126 983.625H738.842C739.797 982.057 741.036 980.443 742.558 978.784C744.104 977.125 746.024 975.739 748.32 974.625C750.638 973.489 753.411 972.92 756.638 972.92C760.956 972.92 764.536 974.045 767.376 976.295C770.24 978.545 772.24 981.705 773.376 985.773C774.536 989.841 774.661 994.568 773.751 999.955C772.865 1005.36 771.172 1010.1 768.672 1014.17C766.172 1018.24 763.115 1021.41 759.501 1023.68C755.911 1025.95 751.979 1027.09 747.706 1027.09C744.547 1027.09 741.99 1026.52 740.036 1025.39C738.104 1024.25 736.626 1022.85 735.604 1021.19C734.581 1019.51 733.842 1017.87 733.388 1016.28H732.842L727.933 1045.64H721.797ZM735.501 999.852C734.82 1004.08 734.82 1007.83 735.501 1011.1C736.183 1014.35 737.558 1016.91 739.626 1018.77C741.695 1020.61 744.422 1021.53 747.808 1021.53C751.286 1021.53 754.388 1020.58 757.115 1018.67C759.842 1016.74 762.115 1014.14 763.933 1010.86C765.751 1007.59 767.001 1003.92 767.683 999.852C768.32 995.83 768.297 992.205 767.615 988.977C766.933 985.75 765.57 983.193 763.524 981.307C761.479 979.398 758.695 978.443 755.172 978.443C751.763 978.443 748.695 979.364 745.967 981.205C743.263 983.023 741.013 985.545 739.217 988.773C737.422 991.977 736.183 995.67 735.501 999.852ZM803.76 1027.09C798.874 1027.09 794.839 1025.95 791.658 1023.68C788.476 1021.39 786.249 1018.22 784.976 1014.17C783.703 1010.1 783.51 1005.42 784.396 1000.12C785.283 994.852 787.033 990.17 789.646 986.08C792.26 981.966 795.487 978.75 799.328 976.432C803.169 974.091 807.339 972.92 811.839 972.92C814.68 972.92 817.339 973.443 819.817 974.489C822.294 975.511 824.396 977.091 826.124 979.227C827.874 981.341 829.089 984.011 829.771 987.239C830.453 990.443 830.43 994.239 829.703 998.625L829.226 1001.62H788.317L789.169 996.273H823.908C824.476 992.909 824.317 989.886 823.43 987.205C822.544 984.523 821.033 982.398 818.896 980.83C816.783 979.239 814.158 978.443 811.021 978.443C807.817 978.443 804.783 979.341 801.919 981.136C799.078 982.932 796.669 985.273 794.692 988.159C792.737 991.023 791.476 994.08 790.908 997.33L790.226 1001.35C789.499 1005.78 789.589 1009.5 790.499 1012.5C791.408 1015.48 793.055 1017.73 795.442 1019.25C797.828 1020.77 800.885 1021.53 804.612 1021.53C807.112 1021.53 809.374 1021.15 811.396 1020.38C813.419 1019.6 815.18 1018.57 816.68 1017.27C818.18 1015.95 819.385 1014.51 820.294 1012.94L825.714 1014.82C824.555 1017.02 822.919 1019.06 820.805 1020.92C818.714 1022.78 816.226 1024.28 813.339 1025.42C810.476 1026.53 807.283 1027.09 803.76 1027.09ZM880.507 985.125L874.678 986.625C874.382 985.057 873.837 983.648 873.041 982.398C872.268 981.125 871.143 980.125 869.666 979.398C868.212 978.648 866.303 978.273 863.939 978.273C860.393 978.273 857.337 979.136 854.768 980.864C852.2 982.568 850.7 984.75 850.268 987.409C849.905 989.636 850.371 991.443 851.666 992.83C852.984 994.216 855.189 995.307 858.28 996.102L865.916 998.045C870.143 999.136 873.155 1000.84 874.95 1003.16C876.768 1005.48 877.393 1008.41 876.825 1011.95C876.325 1014.91 875.064 1017.52 873.041 1019.8C871.041 1022.07 868.473 1023.85 865.337 1025.15C862.223 1026.44 858.746 1027.09 854.905 1027.09C849.746 1027.09 845.689 1025.93 842.734 1023.61C839.803 1021.3 838.234 1017.95 838.03 1013.59L844.132 1012.23C844.314 1015.32 845.371 1017.66 847.303 1019.25C849.257 1020.84 852.007 1021.64 855.553 1021.64C859.598 1021.64 862.996 1020.72 865.746 1018.88C868.496 1017.03 870.075 1014.76 870.484 1012.06C870.871 1009.92 870.473 1008.15 869.291 1006.74C868.132 1005.33 866.155 1004.28 863.359 1003.6L855.212 1001.56C850.825 1000.44 847.723 998.705 845.905 996.341C844.109 993.955 843.507 991.011 844.098 987.511C844.575 984.625 845.78 982.091 847.712 979.909C849.643 977.727 852.087 976.023 855.041 974.795C857.996 973.545 861.223 972.92 864.723 972.92C869.541 972.92 873.212 974.011 875.734 976.193C878.257 978.352 879.848 981.33 880.507 985.125ZM908.044 1027.09C903.317 1027.09 899.419 1025.92 896.351 1023.58C893.283 1021.24 891.135 1018.03 889.908 1013.97C888.703 1009.87 888.533 1005.24 889.396 1000.06C890.26 994.784 891.999 990.114 894.612 986.045C897.226 981.955 900.453 978.75 904.294 976.432C908.158 974.091 912.374 972.92 916.942 972.92C920.464 972.92 923.533 973.602 926.146 974.966C928.76 976.307 930.783 978.205 932.214 980.659C933.646 983.091 934.328 985.932 934.26 989.182H928.124C927.964 986.159 926.862 983.614 924.817 981.545C922.794 979.477 919.93 978.443 916.226 978.443C912.839 978.443 909.703 979.352 906.817 981.17C903.93 982.966 901.487 985.477 899.487 988.705C897.51 991.909 896.18 995.625 895.499 999.852C894.771 1004.1 894.839 1007.86 895.703 1011.14C896.567 1014.39 898.112 1016.93 900.339 1018.77C902.589 1020.61 905.43 1021.53 908.862 1021.53C911.203 1021.53 913.408 1021.1 915.476 1020.24C917.544 1019.35 919.374 1018.1 920.964 1016.49C922.555 1014.85 923.771 1012.93 924.612 1010.73H930.749C929.726 1013.91 928.112 1016.73 925.908 1019.18C923.726 1021.64 921.112 1023.57 918.067 1024.98C915.021 1026.39 911.68 1027.09 908.044 1027.09ZM941.163 1026L949.891 973.636H955.788L954.425 981.682H954.868C956.322 979.045 958.482 976.92 961.345 975.307C964.232 973.67 967.345 972.852 970.686 972.852C972.004 972.852 973.175 973 974.197 973.295C975.22 973.568 976.084 973.955 976.788 974.455L973.891 979.602C973.345 979.33 972.675 979.125 971.879 978.989C971.107 978.852 970.209 978.784 969.186 978.784C966.459 978.784 963.936 979.364 961.618 980.523C959.3 981.682 957.357 983.273 955.788 985.295C954.243 987.295 953.254 989.591 952.822 992.182L947.232 1026H941.163ZM977.325 1026L986.053 973.636H992.155L983.428 1026H977.325ZM991.303 964.534C990.03 964.534 988.95 964.102 988.064 963.239C987.2 962.375 986.78 961.33 986.803 960.102C986.848 958.943 987.314 957.943 988.2 957.102C989.109 956.239 990.178 955.807 991.405 955.807C992.678 955.807 993.757 956.25 994.643 957.136C995.53 958 995.95 959.045 995.905 960.273C995.882 961.432 995.416 962.432 994.507 963.273C993.598 964.114 992.53 964.534 991.303 964.534ZM996.203 1045.64L1008.27 973.636H1014.17L1012.53 983.625H1013.25C1014.2 982.057 1015.44 980.443 1016.96 978.784C1018.51 977.125 1020.43 975.739 1022.73 974.625C1025.04 973.489 1027.82 972.92 1031.04 972.92C1035.36 972.92 1038.94 974.045 1041.78 976.295C1044.65 978.545 1046.65 981.705 1047.78 985.773C1048.94 989.841 1049.07 994.568 1048.16 999.955C1047.27 1005.36 1045.58 1010.1 1043.08 1014.17C1040.58 1018.24 1037.52 1021.41 1033.91 1023.68C1030.32 1025.95 1026.38 1027.09 1022.11 1027.09C1018.95 1027.09 1016.4 1026.52 1014.44 1025.39C1012.51 1024.25 1011.03 1022.85 1010.01 1021.19C1008.99 1019.51 1008.25 1017.87 1007.79 1016.28H1007.25L1002.34 1045.64H996.203ZM1009.91 999.852C1009.23 1004.08 1009.23 1007.83 1009.91 1011.1C1010.59 1014.35 1011.96 1016.91 1014.03 1018.77C1016.1 1020.61 1018.83 1021.53 1022.21 1021.53C1025.69 1021.53 1028.79 1020.58 1031.52 1018.67C1034.25 1016.74 1036.52 1014.14 1038.34 1010.86C1040.16 1007.59 1041.41 1003.92 1042.09 999.852C1042.73 995.83 1042.7 992.205 1042.02 988.977C1041.34 985.75 1039.98 983.193 1037.93 981.307C1035.88 979.398 1033.1 978.443 1029.58 978.443C1026.17 978.443 1023.1 979.364 1020.37 981.205C1017.67 983.023 1015.42 985.545 1013.62 988.773C1011.83 991.977 1010.59 995.67 1009.91 999.852ZM1086.48 973.636L1085.63 978.92H1060.61L1061.5 973.636H1086.48ZM1071.35 961.091H1077.45L1068.93 1012.33C1068.56 1014.51 1068.65 1016.23 1069.2 1017.48C1069.75 1018.7 1070.59 1019.58 1071.72 1020.1C1072.86 1020.6 1074.11 1020.85 1075.47 1020.85C1076.27 1020.85 1076.95 1020.81 1077.52 1020.72C1078.11 1020.6 1078.63 1020.49 1079.09 1020.38L1079.53 1025.86C1078.87 1026.09 1078.09 1026.3 1077.18 1026.48C1076.27 1026.68 1075.18 1026.78 1073.9 1026.78C1071.68 1026.78 1069.62 1026.3 1067.73 1025.32C1065.85 1024.34 1064.42 1022.89 1063.44 1020.95C1062.46 1019.02 1062.2 1016.62 1062.65 1013.76L1071.35 961.091ZM1130.13 956.182H1136.2L1126.65 1014.1C1126.22 1016.81 1126.36 1018.64 1127.06 1019.59C1127.77 1020.55 1129.13 1020.91 1131.15 1020.68C1131.9 1020.61 1132.44 1020.56 1132.75 1020.51C1133.1 1020.44 1133.4 1020.36 1133.67 1020.27L1134.12 1025.59C1133.62 1025.73 1132.97 1025.86 1132.17 1026C1131.38 1026.14 1130.57 1026.22 1129.75 1026.24C1126.1 1026.47 1123.45 1025.67 1121.81 1023.85C1120.2 1022.03 1119.7 1019.26 1120.31 1015.53L1130.13 956.182ZM1142.23 1026L1150.96 973.636H1157.06L1148.33 1026H1142.23ZM1156.21 964.534C1154.94 964.534 1153.86 964.102 1152.97 963.239C1152.11 962.375 1151.69 961.33 1151.71 960.102C1151.75 958.943 1152.22 957.943 1153.11 957.102C1154.02 956.239 1155.08 955.807 1156.31 955.807C1157.58 955.807 1158.66 956.25 1159.55 957.136C1160.44 958 1160.86 959.045 1160.81 960.273C1160.79 961.432 1160.32 962.432 1159.41 963.273C1158.5 964.114 1157.44 964.534 1156.21 964.534ZM1165.64 1026L1177.23 956.182H1183.34L1178.84 983.625H1179.38C1180.31 982.057 1181.55 980.443 1183.1 978.784C1184.67 977.125 1186.6 975.739 1188.89 974.625C1191.19 973.489 1193.94 972.92 1197.14 972.92C1201.44 972.92 1205.02 974.057 1207.88 976.33C1210.77 978.58 1212.78 981.739 1213.92 985.807C1215.05 989.852 1215.18 994.568 1214.29 999.955C1213.38 1005.36 1211.69 1010.1 1209.21 1014.17C1206.73 1018.24 1203.69 1021.41 1200.08 1023.68C1196.46 1025.95 1192.52 1027.09 1188.25 1027.09C1185.06 1027.09 1182.5 1026.52 1180.54 1025.39C1178.61 1024.25 1177.13 1022.85 1176.11 1021.19C1175.11 1019.51 1174.38 1017.87 1173.93 1016.28H1173.18L1171.54 1026H1165.64ZM1176.01 999.852C1175.33 1004.08 1175.33 1007.83 1176.01 1011.1C1176.71 1014.35 1178.09 1016.91 1180.13 1018.77C1182.2 1020.61 1184.93 1021.53 1188.31 1021.53C1191.79 1021.53 1194.89 1020.58 1197.62 1018.67C1200.37 1016.74 1202.64 1014.14 1204.44 1010.86C1206.26 1007.59 1207.51 1003.92 1208.19 999.852C1208.85 995.83 1208.84 992.205 1208.15 988.977C1207.47 985.75 1206.1 983.193 1204.03 981.307C1201.96 979.398 1199.18 978.443 1195.68 978.443C1192.27 978.443 1189.2 979.364 1186.47 981.205C1183.77 983.023 1181.52 985.545 1179.72 988.773C1177.93 991.977 1176.69 995.67 1176.01 999.852ZM1223.26 1026L1231.98 973.636H1237.88L1236.52 981.682H1236.96C1238.42 979.045 1240.58 976.92 1243.44 975.307C1246.33 973.67 1249.44 972.852 1252.78 972.852C1254.1 972.852 1255.27 973 1256.29 973.295C1257.31 973.568 1258.18 973.955 1258.88 974.455L1255.98 979.602C1255.44 979.33 1254.77 979.125 1253.97 978.989C1253.2 978.852 1252.3 978.784 1251.28 978.784C1248.55 978.784 1246.03 979.364 1243.71 980.523C1241.39 981.682 1239.45 983.273 1237.88 985.295C1236.34 987.295 1235.35 989.591 1234.92 992.182L1229.33 1026H1223.26ZM1273.84 1027.19C1270.68 1027.19 1267.9 1026.58 1265.49 1025.35C1263.08 1024.1 1261.28 1022.31 1260.1 1019.97C1258.94 1017.6 1258.62 1014.74 1259.15 1011.38C1259.6 1008.78 1260.46 1006.6 1261.74 1004.83C1263.03 1003.06 1264.67 1001.6 1266.65 1000.47C1268.62 999.307 1270.9 998.398 1273.46 997.739C1276.03 997.08 1278.83 996.58 1281.85 996.239C1284.81 995.875 1287.33 995.557 1289.42 995.284C1291.51 995.011 1293.13 994.58 1294.29 993.989C1295.45 993.398 1296.15 992.443 1296.37 991.125L1296.58 989.898C1297.17 986.33 1296.62 983.523 1294.94 981.477C1293.26 979.409 1290.44 978.375 1286.49 978.375C1282.71 978.375 1279.44 979.216 1276.67 980.898C1273.92 982.557 1271.87 984.5 1270.53 986.727L1265.15 984.648C1266.78 981.784 1268.79 979.5 1271.18 977.795C1273.57 976.068 1276.12 974.83 1278.85 974.08C1281.58 973.307 1284.27 972.92 1286.93 972.92C1288.93 972.92 1290.96 973.182 1293.03 973.705C1295.1 974.227 1296.95 975.136 1298.59 976.432C1300.25 977.705 1301.46 979.489 1302.24 981.784C1303.03 984.057 1303.15 986.943 1302.58 990.443L1296.65 1026H1290.58L1291.98 1017.72H1291.6C1290.65 1019.26 1289.33 1020.76 1287.65 1022.22C1285.99 1023.67 1284 1024.86 1281.68 1025.8C1279.36 1026.73 1276.75 1027.19 1273.84 1027.19ZM1275.37 1021.64C1278.6 1021.64 1281.52 1020.92 1284.13 1019.49C1286.77 1018.06 1288.93 1016.16 1290.61 1013.8C1292.32 1011.41 1293.41 1008.78 1293.88 1005.92L1295.15 998.352C1294.65 998.784 1293.83 999.17 1292.69 999.511C1291.58 999.852 1290.32 1000.16 1288.91 1000.43C1287.52 1000.68 1286.12 1000.9 1284.71 1001.08C1283.33 1001.26 1282.1 1001.42 1281.03 1001.56C1278.01 1001.92 1275.37 1002.49 1273.12 1003.26C1270.9 1004.03 1269.11 1005.1 1267.77 1006.47C1266.43 1007.81 1265.59 1009.53 1265.25 1011.65C1264.73 1014.83 1265.42 1017.3 1267.33 1019.05C1269.26 1020.77 1271.94 1021.64 1275.37 1021.64ZM1312.79 1026L1321.52 973.636H1327.41L1326.05 981.682H1326.49C1327.95 979.045 1330.11 976.92 1332.97 975.307C1335.86 973.67 1338.97 972.852 1342.31 972.852C1343.63 972.852 1344.8 973 1345.82 973.295C1346.85 973.568 1347.71 973.955 1348.41 974.455L1345.52 979.602C1344.97 979.33 1344.3 979.125 1343.5 978.989C1342.73 978.852 1341.83 978.784 1340.81 978.784C1338.08 978.784 1335.56 979.364 1333.24 980.523C1330.92 981.682 1328.98 983.273 1327.41 985.295C1325.87 987.295 1324.88 989.591 1324.45 992.182L1318.86 1026H1312.79ZM1350.75 1045.64C1349.54 1045.64 1348.43 1045.52 1347.41 1045.3C1346.41 1045.07 1345.62 1044.82 1345.06 1044.55L1347.61 1039.19C1349.52 1039.85 1351.27 1040.06 1352.86 1039.81C1354.48 1039.58 1356.01 1038.81 1357.46 1037.49C1358.92 1036.17 1360.35 1034.2 1361.76 1031.59L1364.62 1026.27L1354.26 973.636H1360.57L1368.75 1018.09H1369.19L1392.13 973.636H1398.99L1366.77 1034.22C1365.38 1036.83 1363.85 1038.98 1362.17 1040.66C1360.51 1042.34 1358.71 1043.59 1356.78 1044.41C1354.87 1045.23 1352.86 1045.64 1350.75 1045.64ZM1459.4 973.636L1458.52 978.92H1432.81L1433.67 973.636H1459.4ZM1432.98 1026L1442.97 965.966C1443.43 963.148 1444.46 960.773 1446.08 958.841C1447.71 956.909 1449.67 955.443 1451.94 954.443C1454.21 953.443 1456.54 952.943 1458.93 952.943C1460.52 952.943 1461.81 953.08 1462.81 953.352C1463.81 953.602 1464.6 953.852 1465.17 954.102L1462.58 959.42C1462.12 959.284 1461.58 959.125 1460.94 958.943C1460.33 958.761 1459.52 958.67 1458.52 958.67C1455.88 958.67 1453.72 959.409 1452.04 960.886C1450.36 962.364 1449.28 964.477 1448.8 967.227L1439.05 1026H1432.98ZM1481.22 1027.09C1476.63 1027.09 1472.77 1025.93 1469.63 1023.61C1466.5 1021.27 1464.28 1018.03 1462.98 1013.9C1461.69 1009.76 1461.47 1004.99 1462.34 999.58C1463.2 994.307 1464.92 989.67 1467.48 985.67C1470.08 981.648 1473.26 978.523 1477.03 976.295C1480.8 974.045 1484.9 972.92 1489.34 972.92C1493.95 972.92 1497.81 974.091 1500.93 976.432C1504.06 978.773 1506.28 982.011 1507.58 986.148C1508.89 990.284 1509.12 995.068 1508.26 1000.5C1507.39 1005.75 1505.67 1010.38 1503.08 1014.38C1500.48 1018.35 1497.3 1021.47 1493.53 1023.72C1489.78 1025.97 1485.68 1027.09 1481.22 1027.09ZM1481.29 1021.53C1485.02 1021.53 1488.34 1020.55 1491.25 1018.57C1494.18 1016.57 1496.6 1013.91 1498.51 1010.59C1500.42 1007.25 1501.7 1003.58 1502.36 999.58C1502.97 995.761 1502.9 992.25 1502.15 989.045C1501.4 985.841 1499.96 983.273 1497.83 981.341C1495.69 979.409 1492.85 978.443 1489.3 978.443C1485.6 978.443 1482.28 979.455 1479.35 981.477C1476.42 983.477 1474 986.159 1472.09 989.523C1470.18 992.864 1468.9 996.523 1468.27 1000.5C1467.63 1004.34 1467.68 1007.85 1468.4 1011.03C1469.15 1014.22 1470.6 1016.76 1472.73 1018.67C1474.89 1020.58 1477.75 1021.53 1481.29 1021.53ZM1517.35 1026L1526.08 973.636H1531.98L1530.61 981.682H1531.06C1532.51 979.045 1534.67 976.92 1537.53 975.307C1540.42 973.67 1543.53 972.852 1546.87 972.852C1548.19 972.852 1549.36 973 1550.38 973.295C1551.41 973.568 1552.27 973.955 1552.98 974.455L1550.08 979.602C1549.53 979.33 1548.86 979.125 1548.07 978.989C1547.29 978.852 1546.4 978.784 1545.37 978.784C1542.65 978.784 1540.12 979.364 1537.81 980.523C1535.49 981.682 1533.54 983.273 1531.98 985.295C1530.43 987.295 1529.44 989.591 1529.01 992.182L1523.42 1026H1517.35ZM1609.8 973.636L1608.94 978.92H1583.92L1584.81 973.636H1609.8ZM1594.66 961.091H1600.76L1592.24 1012.33C1591.88 1014.51 1591.97 1016.23 1592.51 1017.48C1593.06 1018.7 1593.9 1019.58 1595.04 1020.1C1596.17 1020.6 1597.42 1020.85 1598.79 1020.85C1599.58 1020.85 1600.26 1020.81 1600.83 1020.72C1601.42 1020.6 1601.94 1020.49 1602.4 1020.38L1602.84 1025.86C1602.18 1026.09 1601.4 1026.3 1600.49 1026.48C1599.58 1026.68 1598.49 1026.78 1597.22 1026.78C1594.99 1026.78 1592.93 1026.3 1591.05 1025.32C1589.16 1024.34 1587.73 1022.89 1586.75 1020.95C1585.77 1019.02 1585.51 1016.62 1585.97 1013.76L1594.66 961.091ZM1627.46 993.273L1622.04 1026H1615.98L1627.57 956.182H1633.63L1629.41 981.852H1629.95C1631.59 979.125 1633.84 976.966 1636.7 975.375C1639.57 973.761 1642.99 972.955 1646.96 972.955C1650.49 972.955 1653.46 973.682 1655.9 975.136C1658.35 976.591 1660.09 978.739 1661.11 981.58C1662.16 984.42 1662.34 987.92 1661.66 992.08L1655.96 1026H1649.86L1655.45 992.455C1656.16 988.136 1655.52 984.739 1653.54 982.261C1651.59 979.761 1648.59 978.511 1644.54 978.511C1641.77 978.511 1639.18 979.102 1636.77 980.284C1634.38 981.466 1632.36 983.17 1630.7 985.398C1629.07 987.602 1627.99 990.227 1627.46 993.273ZM1692.98 1027.09C1688.09 1027.09 1684.06 1025.95 1680.88 1023.68C1677.69 1021.39 1675.47 1018.22 1674.19 1014.17C1672.92 1010.1 1672.73 1005.42 1673.62 1000.12C1674.5 994.852 1676.25 990.17 1678.87 986.08C1681.48 981.966 1684.71 978.75 1688.55 976.432C1692.39 974.091 1696.56 972.92 1701.06 972.92C1703.9 972.92 1706.56 973.443 1709.04 974.489C1711.51 975.511 1713.62 977.091 1715.34 979.227C1717.09 981.341 1718.31 984.011 1718.99 987.239C1719.67 990.443 1719.65 994.239 1718.92 998.625L1718.44 1001.62H1677.54L1678.39 996.273H1713.13C1713.69 992.909 1713.54 989.886 1712.65 987.205C1711.76 984.523 1710.25 982.398 1708.12 980.83C1706 979.239 1703.38 978.443 1700.24 978.443C1697.04 978.443 1694 979.341 1691.14 981.136C1688.3 982.932 1685.89 985.273 1683.91 988.159C1681.96 991.023 1680.69 994.08 1680.13 997.33L1679.44 1001.35C1678.72 1005.78 1678.81 1009.5 1679.72 1012.5C1680.63 1015.48 1682.27 1017.73 1684.66 1019.25C1687.05 1020.77 1690.1 1021.53 1693.83 1021.53C1696.33 1021.53 1698.59 1021.15 1700.62 1020.38C1702.64 1019.6 1704.4 1018.57 1705.9 1017.27C1707.4 1015.95 1708.6 1014.51 1709.51 1012.94L1714.93 1014.82C1713.77 1017.02 1712.14 1019.06 1710.02 1020.92C1707.93 1022.78 1705.44 1024.28 1702.56 1025.42C1699.69 1026.53 1696.5 1027.09 1692.98 1027.09ZM1756.55 1026L1768.14 956.182H1790.67C1795.63 956.182 1799.62 957.068 1802.64 958.841C1805.69 960.614 1807.79 963.08 1808.95 966.239C1810.13 969.375 1810.39 972.989 1809.73 977.08C1809.05 981.125 1807.6 984.705 1805.37 987.818C1803.16 990.932 1800.25 993.375 1796.64 995.148C1793.03 996.898 1788.77 997.773 1783.86 997.773H1764.7L1765.69 991.943H1784.67C1788.33 991.943 1791.47 991.341 1794.08 990.136C1796.7 988.932 1798.79 987.216 1800.36 984.989C1801.92 982.761 1802.96 980.125 1803.46 977.08C1803.96 974.011 1803.79 971.341 1802.95 969.068C1802.13 966.795 1800.61 965.034 1798.38 963.784C1796.17 962.534 1793.23 961.909 1789.55 961.909H1773.56L1762.92 1026H1756.55ZM1792.55 994.5L1804.52 1026H1797.19L1785.42 994.5H1792.55ZM1836.88 1027.09C1832 1027.09 1827.96 1025.95 1824.78 1023.68C1821.6 1021.39 1819.37 1018.22 1818.1 1014.17C1816.83 1010.1 1816.63 1005.42 1817.52 1000.12C1818.41 994.852 1820.16 990.17 1822.77 986.08C1825.38 981.966 1828.61 978.75 1832.45 976.432C1836.29 974.091 1840.46 972.92 1844.96 972.92C1847.81 972.92 1850.46 973.443 1852.94 974.489C1855.42 975.511 1857.52 977.091 1859.25 979.227C1861 981.341 1862.21 984.011 1862.9 987.239C1863.58 990.443 1863.56 994.239 1862.83 998.625L1862.35 1001.62H1821.44L1822.29 996.273H1857.03C1857.6 992.909 1857.44 989.886 1856.56 987.205C1855.67 984.523 1854.16 982.398 1852.02 980.83C1849.91 979.239 1847.28 978.443 1844.15 978.443C1840.94 978.443 1837.91 979.341 1835.04 981.136C1832.2 982.932 1829.79 985.273 1827.82 988.159C1825.86 991.023 1824.6 994.08 1824.03 997.33L1823.35 1001.35C1822.62 1005.78 1822.71 1009.5 1823.62 1012.5C1824.53 1015.48 1826.18 1017.73 1828.57 1019.25C1830.95 1020.77 1834.01 1021.53 1837.74 1021.53C1840.24 1021.53 1842.5 1021.15 1844.52 1020.38C1846.54 1019.6 1848.31 1018.57 1849.81 1017.27C1851.31 1015.95 1852.51 1014.51 1853.42 1012.94L1858.84 1014.82C1857.68 1017.02 1856.04 1019.06 1853.93 1020.92C1851.84 1022.78 1849.35 1024.28 1846.46 1025.42C1843.6 1026.53 1840.41 1027.09 1836.88 1027.09ZM1919.3 973.636L1891.45 1026H1884.97L1874.57 973.636H1880.88L1889.06 1017.99H1889.5L1912.45 973.636H1919.3ZM1941.16 1027.09C1936.57 1027.09 1932.71 1025.93 1929.57 1023.61C1926.43 1021.27 1924.22 1018.03 1922.92 1013.9C1921.63 1009.76 1921.41 1004.99 1922.27 999.58C1923.14 994.307 1924.85 989.67 1927.42 985.67C1930.01 981.648 1933.19 978.523 1936.97 976.295C1940.74 974.045 1944.84 972.92 1949.27 972.92C1953.89 972.92 1957.75 974.091 1960.87 976.432C1964 978.773 1966.22 982.011 1967.51 986.148C1968.83 990.284 1969.06 995.068 1968.19 1000.5C1967.33 1005.75 1965.6 1010.38 1963.01 1014.38C1960.42 1018.35 1957.24 1021.47 1953.47 1023.72C1949.72 1025.97 1945.62 1027.09 1941.16 1027.09ZM1941.23 1021.53C1944.96 1021.53 1948.27 1020.55 1951.18 1018.57C1954.12 1016.57 1956.54 1013.91 1958.44 1010.59C1960.35 1007.25 1961.64 1003.58 1962.3 999.58C1962.91 995.761 1962.84 992.25 1962.09 989.045C1961.34 985.841 1959.9 983.273 1957.76 981.341C1955.63 979.409 1952.79 978.443 1949.24 978.443C1945.54 978.443 1942.22 979.455 1939.29 981.477C1936.35 983.477 1933.93 986.159 1932.02 989.523C1930.12 992.864 1928.84 996.523 1928.21 1000.5C1927.57 1004.34 1927.62 1007.85 1928.34 1011.03C1929.09 1014.22 1930.54 1016.76 1932.67 1018.67C1934.83 1020.58 1937.68 1021.53 1941.23 1021.53ZM1988.88 956.182H1994.95L1985.4 1014.1C1984.97 1016.81 1985.11 1018.64 1985.81 1019.59C1986.52 1020.55 1987.88 1020.91 1989.9 1020.68C1990.65 1020.61 1991.19 1020.56 1991.5 1020.51C1991.85 1020.44 1992.15 1020.36 1992.42 1020.27L1992.87 1025.59C1992.37 1025.73 1991.72 1025.86 1990.92 1026C1990.13 1026.14 1989.32 1026.22 1988.5 1026.24C1984.85 1026.47 1982.2 1025.67 1980.56 1023.85C1978.95 1022.03 1978.45 1019.26 1979.06 1015.53L1988.88 956.182ZM2030.27 973.636L2029.41 978.92H2004.39L2005.28 973.636H2030.27ZM2015.13 961.091H2021.23L2012.71 1012.33C2012.35 1014.51 2012.44 1016.23 2012.98 1017.48C2013.53 1018.7 2014.37 1019.58 2015.5 1020.1C2016.64 1020.6 2017.89 1020.85 2019.25 1020.85C2020.05 1020.85 2020.73 1020.81 2021.3 1020.72C2021.89 1020.6 2022.41 1020.49 2022.87 1020.38L2023.31 1025.86C2022.65 1026.09 2021.87 1026.3 2020.96 1026.48C2020.05 1026.68 2018.96 1026.78 2017.69 1026.78C2015.46 1026.78 2013.4 1026.3 2011.52 1025.32C2009.63 1024.34 2008.2 1022.89 2007.22 1020.95C2006.24 1019.02 2005.98 1016.62 2006.44 1013.76L2015.13 961.091ZM2064.25 1026H2057.56L2094.55 956.182H2101.37L2115.18 1026H2108.5L2096.87 964.466H2096.43L2064.25 1026ZM2073.52 999.239H2108.15L2107.2 1004.97H2072.56L2073.52 999.239ZM2128.27 1026L2139.86 956.182H2162.39C2167.35 956.182 2171.34 957.125 2174.36 959.011C2177.38 960.898 2179.46 963.466 2180.6 966.716C2181.76 969.966 2182 973.636 2181.31 977.727C2180.65 981.773 2179.2 985.432 2176.95 988.705C2174.72 991.955 2171.78 994.534 2168.12 996.443C2164.48 998.352 2160.21 999.307 2155.3 999.307H2137.58L2138.53 993.58H2156.09C2159.75 993.58 2162.89 992.898 2165.53 991.534C2168.19 990.148 2170.31 988.261 2171.9 985.875C2173.5 983.466 2174.54 980.75 2175.04 977.727C2175.54 974.659 2175.38 971.932 2174.56 969.545C2173.77 967.159 2172.27 965.295 2170.06 963.955C2167.88 962.591 2164.95 961.909 2161.27 961.909H2145.28L2134.64 1026H2128.27ZM2207.36 956.182L2195.77 1026H2189.39L2200.98 956.182H2207.36Z" fill="white"/>
<path d="M2298.85 848.256V300H2432.41V848.256H2298.85Z" fill="white"/>
<path fill-rule="evenodd" clip-rule="evenodd" d="M1809.85 849.256H1943.41L1943.41 641.317H1975.45C2041.75 641.439 2073.59 639.736 2113.72 631.161C2149.05 622.563 2180.38 602.161 2202.54 573.329C2224.69 544.498 2236.34 508.967 2235.54 472.616C2235.54 377.323 2168.37 300 2034.02 300H1809.85V849.256ZM2026.19 546.826C2076.19 546.826 2099.62 521.041 2099.62 478.087C2099.62 437.461 2076.19 410.906 2026.2 410.906H1943.41V546.826H2026.19Z" fill="white"/>
<path d="M1332.64 848.256L1468.55 434.286L1605.22 848.256H1746.6L1552.1 300H1384.94L1190.44 848.256H1332.64Z" fill="white"/>
<path d="M873.053 300L1008.96 713.97L1145.63 300H1287.01L1092.52 848.256H925.349L730.853 300H873.053Z" fill="#FF005C"/>
<path fill-rule="evenodd" clip-rule="evenodd" d="M300 848.256H433.569V641.317H465.597L579.653 848.303H730.407L603.867 631.161C639.197 622.563 670.531 602.161 692.685 573.329C714.839 544.498 726.483 508.967 725.691 472.616C725.691 377.323 658.521 300 524.166 300H300.147H300H220L300.147 411.168L300 848.256ZM516.336 546.826C566.336 546.826 589.764 521.041 589.764 478.087C589.764 437.461 566.336 410.906 516.352 410.906H433.553V546.826H516.336Z" fill="#FF005C"/>
</svg>
