<svg width="2213" height="550" viewBox="0 0 2213 550" fill="none" xmlns="http://www.w3.org/2000/svg">
<path d="M2078.85 548.256V0H2212.41V548.256H2078.85Z" fill="white"/>
<path fill-rule="evenodd" clip-rule="evenodd" d="M1589.85 549.256H1723.41L1723.41 341.317H1755.45C1821.75 341.439 1853.59 339.736 1893.72 331.161C1929.05 322.563 1960.38 302.161 1982.54 273.329C2004.69 244.498 2016.34 208.967 2015.54 172.616C2015.54 77.3228 1948.37 0 1814.02 0H1589.85V549.256ZM1806.19 246.826C1856.19 246.826 1879.62 221.041 1879.62 178.087C1879.62 137.461 1856.19 110.906 1806.2 110.906H1723.41V246.826H1806.19Z" fill="white"/>
<path d="M1112.64 548.256L1248.55 134.286L1385.22 548.256H1526.6L1332.1 0H1164.94L970.439 548.256H1112.64Z" fill="white"/>
<path d="M653.053 0L788.964 413.97L925.631 0H1067.01L872.518 548.256H705.349L510.853 0H653.053Z" fill="#FF005C"/>
<path fill-rule="evenodd" clip-rule="evenodd" d="M80 548.256H213.569V341.317H245.597L359.653 548.303H510.407L383.867 331.161C419.197 322.563 450.531 302.161 472.685 273.329C494.839 244.498 506.483 208.967 505.691 172.616C505.691 77.3228 438.521 0 304.166 0H80.1474H80H0L80.1474 111.168L80 548.256ZM296.336 246.826C346.336 246.826 369.764 221.041 369.764 178.087C369.764 137.461 346.336 110.906 296.352 110.906H213.553V246.826H296.336Z" fill="#FF005C"/>
</svg>
